<svg id="visual" viewBox="0 0 1920 1080" width="1920" height="1080" xmlns="http://www.w3.org/2000/svg" xmlns:xlink="http://www.w3.org/1999/xlink" version="1.1"><rect x="0" y="0" width="1920" height="1080" fill="#ebe8e8"></rect><defs><linearGradient id="grad1_0" x1="43.8%" y1="0%" x2="100%" y2="100%"><stop offset="14.444444444444446%" stop-color="#fd2d2d" stop-opacity="1"></stop><stop offset="85.55555555555554%" stop-color="#fd2d2d" stop-opacity="1"></stop></linearGradient></defs><defs><linearGradient id="grad1_1" x1="43.8%" y1="0%" x2="100%" y2="100%"><stop offset="14.444444444444446%" stop-color="#fd2d2d" stop-opacity="1"></stop><stop offset="85.55555555555554%" stop-color="#ff5f56" stop-opacity="1"></stop></linearGradient></defs><defs><linearGradient id="grad1_2" x1="43.8%" y1="0%" x2="100%" y2="100%"><stop offset="14.444444444444446%" stop-color="#ff847d" stop-opacity="1"></stop><stop offset="85.55555555555554%" stop-color="#ff5f56" stop-opacity="1"></stop></linearGradient></defs><defs><linearGradient id="grad1_3" x1="43.8%" y1="0%" x2="100%" y2="100%"><stop offset="14.444444444444446%" stop-color="#ff847d" stop-opacity="1"></stop><stop offset="85.55555555555554%" stop-color="#ffa7a3" stop-opacity="1"></stop></linearGradient></defs><defs><linearGradient id="grad1_4" x1="43.8%" y1="0%" x2="100%" y2="100%"><stop offset="14.444444444444446%" stop-color="#fac8c7" stop-opacity="1"></stop><stop offset="85.55555555555554%" stop-color="#ffa7a3" stop-opacity="1"></stop></linearGradient></defs><defs><linearGradient id="grad1_5" x1="43.8%" y1="0%" x2="100%" y2="100%"><stop offset="14.444444444444446%" stop-color="#fac8c7" stop-opacity="1"></stop><stop offset="85.55555555555554%" stop-color="#ebe8e8" stop-opacity="1"></stop></linearGradient></defs><defs><linearGradient id="grad2_0" x1="0%" y1="0%" x2="56.3%" y2="100%"><stop offset="14.444444444444446%" stop-color="#fd2d2d" stop-opacity="1"></stop><stop offset="85.55555555555554%" stop-color="#fd2d2d" stop-opacity="1"></stop></linearGradient></defs><defs><linearGradient id="grad2_1" x1="0%" y1="0%" x2="56.3%" y2="100%"><stop offset="14.444444444444446%" stop-color="#ff5f56" stop-opacity="1"></stop><stop offset="85.55555555555554%" stop-color="#fd2d2d" stop-opacity="1"></stop></linearGradient></defs><defs><linearGradient id="grad2_2" x1="0%" y1="0%" x2="56.3%" y2="100%"><stop offset="14.444444444444446%" stop-color="#ff5f56" stop-opacity="1"></stop><stop offset="85.55555555555554%" stop-color="#ff847d" stop-opacity="1"></stop></linearGradient></defs><defs><linearGradient id="grad2_3" x1="0%" y1="0%" x2="56.3%" y2="100%"><stop offset="14.444444444444446%" stop-color="#ffa7a3" stop-opacity="1"></stop><stop offset="85.55555555555554%" stop-color="#ff847d" stop-opacity="1"></stop></linearGradient></defs><defs><linearGradient id="grad2_4" x1="0%" y1="0%" x2="56.3%" y2="100%"><stop offset="14.444444444444446%" stop-color="#ffa7a3" stop-opacity="1"></stop><stop offset="85.55555555555554%" stop-color="#fac8c7" stop-opacity="1"></stop></linearGradient></defs><defs><linearGradient id="grad2_5" x1="0%" y1="0%" x2="56.3%" y2="100%"><stop offset="14.444444444444446%" stop-color="#ebe8e8" stop-opacity="1"></stop><stop offset="85.55555555555554%" stop-color="#fac8c7" stop-opacity="1"></stop></linearGradient></defs><g transform="translate(1920, 0)"><path d="M0 432C-61.6 397.2 -123.2 362.5 -191 330.8C-258.8 299.2 -332.9 270.6 -374.1 216C-415.3 161.4 -423.7 80.7 -432 0L0 0Z" fill="#f3d8d8"></path><path d="M0 360C-51.3 331 -102.6 302.1 -159.2 275.7C-215.7 249.3 -277.4 225.5 -311.8 180C-346.1 134.5 -353.1 67.2 -360 0L0 0Z" fill="#ffb7b5"></path><path d="M0 288C-41.1 264.8 -82.1 241.7 -127.3 220.5C-172.6 199.4 -221.9 180.4 -249.4 144C-276.9 107.6 -282.4 53.8 -288 0L0 0Z" fill="#ff9690"></path><path d="M0 216C-30.8 198.6 -61.6 181.2 -95.5 165.4C-129.4 149.6 -166.5 135.3 -187.1 108C-207.7 80.7 -211.8 40.3 -216 0L0 0Z" fill="#ff726a"></path><path d="M0 144C-20.5 132.4 -41.1 120.8 -63.7 110.3C-86.3 99.7 -111 90.2 -124.7 72C-138.4 53.8 -141.2 26.9 -144 0L0 0Z" fill="#ff4942"></path><path d="M0 72C-10.3 66.2 -20.5 60.4 -31.8 55.1C-43.1 49.9 -55.5 45.1 -62.4 36C-69.2 26.9 -70.6 13.4 -72 0L0 0Z" fill="#fd2d2d"></path></g><g transform="translate(0, 1080)"><path d="M0 -432C75.5 -420.7 151 -409.3 216 -374.1C281 -338.9 335.5 -279.8 369.8 -213.5C404 -147.2 418 -73.6 432 0L0 0Z" fill="#f3d8d8"></path><path d="M0 -360C62.9 -350.6 125.8 -341.1 180 -311.8C234.2 -282.4 279.6 -233.2 308.2 -177.9C336.7 -122.6 348.4 -61.3 360 0L0 0Z" fill="#ffb7b5"></path><path d="M0 -288C50.3 -280.4 100.7 -272.9 144 -249.4C187.3 -225.9 223.7 -186.6 246.5 -142.3C269.4 -98.1 278.7 -49.1 288 0L0 0Z" fill="#ff9690"></path><path d="M0 -216C37.7 -210.3 75.5 -204.7 108 -187.1C140.5 -169.5 167.8 -139.9 184.9 -106.8C202 -73.6 209 -36.8 216 0L0 0Z" fill="#ff726a"></path><path d="M0 -144C25.2 -140.2 50.3 -136.4 72 -124.7C93.7 -113 111.8 -93.3 123.3 -71.2C134.7 -49.1 139.3 -24.5 144 0L0 0Z" fill="#ff4942"></path><path d="M0 -72C12.6 -70.1 25.2 -68.2 36 -62.4C46.8 -56.5 55.9 -46.6 61.6 -35.6C67.3 -24.5 69.7 -12.3 72 0L0 0Z" fill="#fd2d2d"></path></g></svg>